# xmcd CD database file
#
# Track frame offsets:
#	151
#	18156
#	61091
#	78016
#	96003
#	125662
#	136841
#	155772
#	171565
#	188388
#	206514
#	226231
#	248354
#	264195
#	284512
#	303767
#	318668
#	342559
#
# Disc length: 4793 seconds
#
# Revision: 2
# Processed by: cddbd v1.5.1PL2 Copyright (c) Steve Scherf et al.
# Submitted via: CDex 1.51
#
DISCID=ea12b712
DTITLE=JANIS JOPLINE - SUMMERTIME
DYEAR=2001
DGENRE=Blues
TTITLE0=Summertime
TTITLE1=Ball And Chain
TTITLE2=Maybe
TTITLE3=Cry Baby
TTITLE4=Work Me, Lord
TTITLE5=Buried Alive In The Blues
TTITLE6=One Good Man
TTITLE7=Get It While You Can
TTITLE8=Move Over
TTITLE9=Try (Just A Little Bit Harder)
TTITLE10=Kozmic Blues
TTITLE11=I Need A Man To Love
TTITLE12=A Woman Left Lonely
TTITLE13=Me And Bobby McGee
TTITLE14=Piece Of My Heart
TTITLE15=Trust Me
TTITLE16=To Love Somebody
TTITLE17=My Baby
EXTD=YEAR: 2001
EXTT0=
EXTT1=
EXTT2=
EXTT3=
EXTT4=
EXTT5=
EXTT6=
EXTT7=
EXTT8=
EXTT9=
EXTT10=
EXTT11=
EXTT12=
EXTT13=
EXTT14=
EXTT15=
EXTT16=
EXTT17=
PLAYORDER=
